<svg xmlns="http://www.w3.org/2000/svg" viewBox="0 0 44.05 44.78"><defs><style>.a{fill:#00a551;}.b{fill:#0071bb;}.c{fill:#fff;}.d{fill:#ec1c24;}</style></defs><title>JCB</title><path class="a" d="M769,509.09c.15,4.57.3,9.29.07,13.94a6.25,6.25,0,0,1-3,4.64,8.86,8.86,0,0,1-4.56,1l-6.06-.07,0-38.76a6.56,6.56,0,0,1,4.65-5.48,82.64,82.64,0,0,1,8.83-.31l.15,2v22l-.07.07Z" transform="translate(-725.09 -484.04)"/><path class="b" d="M725.09,507.65V489.37a6.62,6.62,0,0,1,4-4.72c3-.91,6.4-.38,9.44-.46.16,3,0,6.7.08,9.29l.15,23.84c-.38,3.65,1,8.6-3.58,10.66-2.89,1.44-6.77.53-10.05.84l-.07-.54V507.65Z" transform="translate(-725.09 -484.04)"/><path class="c" d="M725.09,508.41A6.63,6.63,0,0,0,730,511.3c2.51.23,5.78.46,7.46-1.9,1.14-1.22.46-2.89.69-4.49l-.08-2.9a27.89,27.89,0,0,0-4.42-.07c-.84,3.12,1.37,6.62-2.21,8.22a3.9,3.9,0,0,1-2.89-.46c-1.37-.3-.61-2.51-2.44-1.9l-1.06-.15Z" transform="translate(-725.09 -484.04)"/><path class="d" d="M753.79,486.71l.08,37.08a6.7,6.7,0,0,1-3.81,4.34c-2.89,1-6.47.53-9.67.53l-.15-39.06a6,6,0,0,1,3-4.42,7.64,7.64,0,0,1,4-1.06h6.47Z" transform="translate(-725.09 -484.04)"/><path class="c" d="M753.19,502a7.52,7.52,0,0,1,.07,1.37c-2.28-.61-5.1-1.29-7.16.38a3.8,3.8,0,0,0,1.22,6.25c2,.61,4,.07,5.87-.39a2.29,2.29,0,0,1,0,1.22h-8.76a4.54,4.54,0,0,1-3.43-2.66,4.68,4.68,0,0,1,.76-4.64,4.44,4.44,0,0,1,3.66-1.6Z" transform="translate(-725.09 -484.04)"/><path class="c" d="M769,509.09A2.56,2.56,0,0,1,767,511H756.38l-.38-.16c0-3-.07-5.93.08-8.9h6.78c2.13.22,4.49-.69,5.48,1.29a2,2,0,0,1-.31,2.13c-.3.53-1,.61-1.14,1A3.19,3.19,0,0,1,769,508.1Zm-9.14-6.24a7.37,7.37,0,0,0-.08,2.89c1.6-.07,3.66.54,4.73-.68a1.51,1.51,0,0,0-.08-1.6C763.16,502.39,761.33,503.08,759.81,502.85Zm4.11,4.19a19.66,19.66,0,0,0-4.26-.08,14,14,0,0,0,.15,3.12c1.52,0,3.2.23,4.57-.46a1.55,1.55,0,0,0-.46-2.58Z" transform="translate(-725.09 -484.04)"/></svg>