<svg xmlns="http://www.w3.org/2000/svg" viewBox="0 0 75.09 24.36"><defs><style>.a{fill:#0066b2;}.b{fill:#f9a533;}</style></defs><title>visa</title><polygon class="a" points="32.55 23.95 26.43 23.95 30.25 0.42 36.38 0.42 32.55 23.95"/><path class="a" d="M244.75,156.08l-5.84,16.19-.7-3.49h0l-2.06-10.58a2.61,2.61,0,0,0-2.9-2.12h-9.66l-.11.4a22.81,22.81,0,0,1,6.41,2.69l5.32,20.44h6.38l9.75-23.53Z" transform="translate(-223.48 -155.66)"/><path class="a" d="M292.94,179.61h5.63l-4.91-23.53h-4.92a2.81,2.81,0,0,0-2.83,1.75l-9.14,21.78h6.39l1.28-3.49h7.78Zm-6.74-8.32,3.22-8.81,1.81,8.81Z" transform="translate(-223.48 -155.66)"/><path class="a" d="M277.25,161.74l.87-5.06a17.71,17.71,0,0,0-5.51-1c-3,0-10.26,1.33-10.26,7.79,0,6.08,8.48,6.16,8.48,9.35s-7.6,2.62-10.11.61l-.91,5.28a17.11,17.11,0,0,0,6.91,1.33c4.18,0,10.49-2.17,10.49-8.06,0-6.12-8.55-6.69-8.55-9.35S274.63,160.29,277.25,161.74Z" transform="translate(-223.48 -155.66)"/><path class="b" d="M238.21,168.78l-2.06-10.58a2.61,2.61,0,0,0-2.9-2.12h-9.66l-.11.4a23.73,23.73,0,0,1,9.09,4.56A18.31,18.31,0,0,1,238.21,168.78Z" transform="translate(-223.48 -155.66)"/></svg>